<?xml version="1.0" encoding="UTF-8"?>
<svg id="Layer_1" xmlns="http://www.w3.org/2000/svg" version="1.1" viewBox="0 0 181.2 200.5">
  <!-- Generator: Adobe Illustrator 29.5.1, SVG Export Plug-In . SVG Version: 2.1.0 Build 141)  -->
  <path d="M178.8,197.8c-.9-2.2-15.8-10.4-18.8-11.9-6-3-12.4-5.7-18.7-8.3-2.9-1.2-21.4-7.5-21.9-8.8v-28.4c8.8-8.8,13.6-25.2,14-25.2,11-1.2,16.9-21.8,10.6-31.7-1.5-2.4-5.5-.5-5.5-.7,1.7-14.3,5.2-36.1-1.5-47.6-9.9-17.1-53.1-50.5-85.4-9.2-21.4,4.9-13.8,35.4-11.2,41.9.9,2.2,1,6.9,2.5,15.6-16.3-.6-4.4,31.3,5.5,31.4.2.2,4.8,16.7,12.4,24.5l.5,29.4c0,.4-1.6,1.1-2.1,1.3-7.4,3.9-19.3,6.9-27.6,10.5-7.1,3.1-14.7,6.5-21.2,10.7-1.6,1-8.8,5.8-9.1,7.1-.3,1.2,1.3,2.4,2.5,2.1.7-.1,171.6,0,173.1,0,1.5,0,2.2-1.4,1.6-2.8h0ZM98.7,91.5s0,0,0,0c-.8-4-.3-8.3,1.5-11.8.4.4,1,.7,1.6.7s.7,0,1-.2c1.4-.7,10.3-1.6,15.4,0,1.2.4,2.5-.3,2.9-1.5s-.3-2.5-1.5-2.9c-4.5-1.4-11.7-1.3-16-.5,1.6-1.4,3.5-2.3,5.7-2.6,6.9-1,13-.6,17.5,5.2,12.8,16.3-11.3,36.3-24.9,20.5-1.5-1.8-2.6-3.9-3.1-6.2,0-.2,0-.3,0-.5h0ZM127.7,75.8c-1-1.2-3.4-3.1-4.8-3.9-3.8-2.2-16.8-2.9-21.4,2.4-3,3.5-4.6,6.6-5.1,10.3-.2,1.4-.2,2.7-.1,3.9-1.2-.9-2.8-1.5-4.4-1.6-2.1-.2-4.1.3-5.8,1.5,0-1.2,0-2.5-.1-3.8-.5-3.7-2.6-8.7-6.8-11.7-2.6-1.8-10.7-5.4-19.8-1-1.4.7-3.7,2.6-4.8,3.9-.6.7-1.1,1.4-1.6,2.2h-6.9c-.3-11.8,1.9-31,17.4-42,3.6-2.5,11.2,2,14.7-1.3,9.4-8.8,43.3,8.8,47.9,11.3,4.5,2.4,8.3,24.4,8.6,30,0,.7,0,1.3.1,2h-5.4c-.5-.7-1-1.4-1.6-2.2h0ZM55.5,77.7c4.5-5.7,10.6-6.2,17.5-5.2,2.2.3,4.1,1.3,5.7,2.6-4.5-.8-12.1-.8-16.9.6-1.2.3-1.9,1.6-1.5,2.8s1.6,1.9,2.8,1.5c5.3-1.5,15-.8,16.7,0,.3.1.6.2,1,.2.5,0,1-.2,1.4-.5,1.6,3.4,2.2,7.4,1.5,11.2,0,.2-.1.3-.1.5-.5,2.4-1.6,4.7-3.2,6.6-13.6,15.8-37.7-4.2-24.9-20.5h0ZM144.5,90.1c1.5,8.7-3.4,20.4-8.6,21.4-.3,0-1.6.1-1.7,0-.1-.3,1.2-7.8,1.4-8.6.9-3,4.5-5.3,4.7-5.7.9-3.3-3.6,0-4,1.6l1.3-10.7c2.2-2.9,6-2.8,6.8,2.1h0ZM47.9,111.4c0,.1-1.4,0-1.7,0-5.1-.9-10.1-12.7-8.6-21.4.8-4.9,4.6-5,6.8-2.1l1.3,10.7c-.4-1.5-4.9-4.9-4-1.6.1.5,3.7,2.7,4.7,5.7.2.7,1.6,8.3,1.4,8.6h0ZM59.6,133.3c-9.5-13.8-10.7-29.1-12.8-45.2,0-.2-.3-1.9-.6-4.5h4.1c-4.6,17.4,21.6,32.2,33,13.7.7-1.1,1.6-2.9,2.2-5.3,2.1-2.9,4.7-3.1,6.2-2.9,2.2.2,4.4,1.6,5.2,3.2,0,0,0,0,0,.1.6,2.1,1.4,3.8,2.1,4.9,11.4,18.5,37.6,3.6,33-13.7h2.9c0,16.6-3.3,34.8-12.7,48.6,0,0,0,0,0,0-.3.4-.6.8-.9,1.2-.3.5-.7.9-1,1.4-.4.5-.8,1-1.2,1.5-15.9,19.1-45.4,17-59.4-3.1h0ZM116.2,186c-14.6,11.3-46.3,10.1-57.7-5.5-.4-.6-2.9-4.7-2.8-5,0-.5,9.1-3.6,9.1-6.2v-20.7l3.9,5.4c12.9,14.8,30.7,15,43.7.2l3.3-4.7c0,11.1-.2,9.1.5,20.2.8,2.8,8.4,5.2,8.5,5.9.3,2.2-6.6,9.1-8.5,10.5h0Z"/>
  <path d="M91,113c.2,0,.5,0,.8,0,2.1,0,5.2-.7,7.7-4.5.3-.5.2-1.1-.3-1.4s-1.1-.2-1.4.3c-1.7,2.5-4,3.8-6.6,3.6-2.5-.2-4.9-1.8-5.7-3.8-.2-.5-.8-.8-1.3-.6s-.8.8-.6,1.3c1.1,2.7,4.2,4.8,7.4,5.1h0Z"/>
  <path d="M84.6,133.1c-.5.3-.6,1-.2,1.4.3.5,1,.6,1.4.2,3.7-2.6,10.2-1.4,11.4,0,.2.2.5.3.8.3s.5,0,.7-.3c.4-.4.5-1,0-1.5-2.1-2.3-9.9-3.4-14.2-.3Z"/>
  <path d="M79.5,120.1c3.3.7,7.6,1,11.7,1s10.9-.5,12.7-1.2c.5-.2.8-.8.6-1.3-.2-.5-.8-.8-1.3-.6-2.8,1-15.9,1.7-23.2,0-.6-.1-1.1.2-1.2.8s.2,1.1.8,1.2h0Z"/>
  <path d="M109,91.9c1.9,0,3.4-1.5,3.4-3.4v-6c0-.3-.3-.6-.6-.6h-5.5c-.3,0-.6.3-.6.6v6c0,1.9,1.5,3.4,3.4,3.4h0Z"/>
  <path d="M72,91.9c1.9,0,3.4-1.5,3.4-3.4v-6c0-.3-.3-.6-.6-.6h-5.5c-.3,0-.6.3-.6.6v6c0,1.9,1.5,3.4,3.4,3.4h0Z"/>
</svg>