<?xml version="1.0" encoding="UTF-8"?>
<svg id="Layer_1" xmlns="http://www.w3.org/2000/svg" xmlns:xlink="http://www.w3.org/1999/xlink" version="1.1" viewBox="0 0 1401.9 2298.1">
  <!-- Generator: Adobe Illustrator 29.5.1, SVG Export Plug-In . SVG Version: 2.1.0 Build 141)  -->
  <defs>
    <style>
      .st0 {
        fill: none;
      }

      .st1 {
        fill: #fff;
      }

      .st2 {
        clip-path: url(#clippath);
      }
    </style>
    <clipPath id="clippath">
      <rect class="st0" x="-434.1" y="845.6" width="2065.9" height="1452.5"/>
    </clipPath>
  </defs>
  <rect x="0" width="1401.9" height="2298.1"/>
  <g class="st2">
    <path class="st1" d="M1.8,2306.8c1.4-16.5,29.3-646.7,30-669.1,4.4-151.2-1.2-303.4.9-454.8l1.5-3.4h209.4v163.4c0,.6-1.6,1.4-2.5,1.5-1.8.2-30.4-9.1-34.4-10.6-2.9-1.1-8.8-3.2-11-5-8.9-7.3-17.1-27.9-26-37-1.1-1.1-2.3-2.5-3.7-3.3-5.1-3.1-16.2-3.3-15.3-11.1,11.4,3.4,9.2-5.9,12.6-11,.5-.8,2.2-.8,2.5-1.7.5-2-1.5-11.4-1-15.8.6-5.9,5-8.5,1-13.1-7.6-8.8-29.2-11.3-35.9.2-7,12,4.1,24.1,1.2,34.2-4,13.7-26.1,13.6-31.7,24.2-4.5,8.7-11.2,37-13.3,47.7-2.8,14-2.4,24.8-3.3,38.7-.8,12.9-2.3,18.9-1,32,1,10.3-4.1,13.9,4.5,23.5,2.1,2.4,3.9,4.7,7.5,4l-2-13,6,4c2.6-7.4-2.9-13.2-3.1-20.5-.2-13.3,4.5-44.9,7.9-58.1.2-.9,2.2-9.8,4.1-7.4-.3,9.5.4,19,0,28.5-.4,9.5-1.3,19.5-2,29-.2,3.6-3.1,13-1.5,15.5.6,1,3,1.2,3.3,2.6.2.8-.9,3.3-.9,4.9,0,35.2-1.6,69.9-3,104.9-.4,10.4,1,21.9,0,32-.3,3.8-2.8,9.4-2.9,12,0,2.5,2.4,6.1,2.8,9.1.5,3.6-.6,8.5.3,11.7.3.9,10.4,12.8,11.8,14.2,2.5,2.5,5.5,3.5,7.1,5.2,2.2,2.3,5.6,10,8.1,13.6,30.6,43,60.1,86.4,90,129.9,3,4.4,9,9.7,11.1,13.9,1.8,3.7-1.3,4.3-4.3,3.3-5.4-1.9-6.7-16.2-16-12.1-6.9,19.3,9.8,31,20,44.1,23.9,30.5,45,65.3,68.2,96.7,28.6,38.7,62.7,82.5,95.3,117.6,4.1,4.4,16.4,17.8,20.8,20.2,14,7.8,25.2-5.1,39.2-5.3,21.2-.3,26,27.9,33,43,8.7,19,19.8,35,30.3,52.7,13.2,22.1,24.6,44.6,42.2,63.8,6.6,7.2,14.6,10.9,24.5,11.5,11.7.7,4.2-6.5,5.6-11.3.6-1.9,3.1-2,4.2-4,3.4-6,1.1-22.9-1-29.5-1-3.2-3.8-7.2-5.1-10.9-6.9-19.4-14.8-38.5-21.5-58-4.5-2.4-12.5-4-16.3-7.2-4-3.4-7.8-11.3-11.5-15.5-11.9-13.6-30.5-34.1-46.3-42.7-3.3-1.8-8.6-2.8-11.2-4.8-1.7-1.3-8.8-10.7-9.3-12.7-2.1-9,4.5-17.9,5.7-25.8,2.9-18.6-21.7-61.1-23.8-84-1.3-13.9,18.2-15.9,25.9-21.9,1.5-1.2,2.1-3.4,3-4,2.1-1.3,4.9.7,7.4.5,2.4-.2,27-17.1,28.6-19.5.6-.8,1.4-1.1,1-2.5l-39.6-28c-1.2-.3-2.2,0-3.4.5-2.6,1.1-10.8,7.7-14.1,9.9-3.6,2.4-7.8,5.2-11.9,6.6-2.1,2.8,18.3,14.6,15.9,18.8-.9,1.7-13,3.1-16.4,4.1-3.6,1.1-21.9,7.7-23,10l.5,29c-1.1,0-2,.1-3-.5-2.7-1.6-13.9-19.1-17-23-12.5-16-25.9-31.5-38.4-47.6-13.9-17.9-31.4-47.1-47-61.9-2.8-2.7-8.3-5.2-11.5-8.4-11.5-11.5-23.3-31.5-34-44.9-23.4-29.3-49.5-58.4-74.5-86.4-6.6-7.4-19.8-18.6-24.8-26.2-1.7-2.5-3-5.1-2.6-8.2l10.6-6.7c.8-1,.6-2,0-3-2.2-4.2-22.9-9.2-25.4-16.7,4-14.1,2.1-29.2,2.9-43.8.6-10.9,2.5-22,3-33,1.1-23.1-.8-49.6,1.9-72,.5-4.3,3.8-5.9,3.9-7.9.6-10.4-2.5-27.7-3-39-.6-15.3-.7-30.6-.8-45.9l1.4-1.6,20.4,18.5c13.4,1.4,25.9,6.7,39.2,8.8,2.4.4,4.7-.8,7.1-.2,2,.6,3,3.9,5.2,3.9,3.2,0,6.1-11.5,10.7-10.9,12.4,7.4,26,14.5,37.7,21.8l-28,2.9c-2-2.9-10.1-22.2-10.1-22.2l-2.1.9,6.2,15.4s-17,3.8-18.5,4c-5.1.8,1.1,6.6,5.1,8.1,0,0-5.7-4.7-4.8-6.6,6.9-.9,19-3.6,19-3.6l3.5,7.1,8.6-.6,5.9,19.5-31-15v191.4c34.5,23.4,71.3,43.5,105.6,67.3,0,0,3.4-1.3,3.4-1.5v-217.2c-1.5-.2-2.8-1-4.4-.9-19.2.6-31,19-47.6,26.4-10.8,4.8-41,10.5-37.9-8.9.7-4.8,5-7.7,8.6-10.4,8-5.9,18.5-11.2,27.1-16.3,2.4-18.4-5.8-54.2,9.5-67.5.9-.7,3.7-3.3,6.2-3.3h35.5c-.8,9,1.1,19.8,0,28.5-.6,4.7-5.9,13.5,3.6,14.5,12.8,1.3,4.4-12.4,4.4-15.5v-27.5c5.9.9,11.9-.8,17.5-1,7.4-.3,36.1-1.1,41.2.8,3,1.1,8.8,6.7,10.5,9.5,6.6,11.2,5.6,38.7,4.8,52.2-.2,3.5-1.2,6.8-1.2,10.3-4.8,2.2-10.3.6-15.3,1.2-10.3,1-20.7,3-31,4-5.9.6-14.4,0-20,1-1.1.2-2,.4-2.4,1.6l-1,222.6-3.1,1.6,198.8,124.5c125.5,78.6,251.5,156.9,376.6,236.1,96.9,61.4,410.4,260.2,470.7,296.8,2.2,1.4,9.1,5.5,11,5.9,5.7,1.2-1413,.2-1413,.2M334.7,1418.3v-53.9c0-7.8-4.3-14.3-5.6-16-4.7-6.3-12.5-9.1-19.4-4.5-14.3,9.5-7.3,48.6-9.1,64l.2,1.3,33.8,9.1Z"/>
    <path class="st1" d="M245.7,1729.2c-17.1-17.9-32.8-37.5-49.5-56-17.2-19.1-36.6-37.5-53-56.9-6.9-8.2-11.3-15.5-16.9-24.1-1.6-2.5-6.9-9.8-6.4-12.1.5-2.3,2.2-4.9,2.7-8.4,1.2-9.3,1.1-19.4,2.1-28.8,3.4-30.5,8.8-60.9,12-91.5,1.8.4,1.9,2,2,3.5.4,3.5.8,8.5,1,12,1.9,38.3-1.1,77.4.9,115,.6,11.6,4.2,14.3,11.1,23,29.7,37.4,60.2,75,87.7,114.1,2.2,3.1,5.3,6.6,6.2,10.3"/>
    <path class="st1" d="M338.7,1915.1c-28.1-28.6-52.2-61-77-92.4-7.8-9.9-18.2-18-20-31.5,1-1.1,4.3,2.7,5,3.5,3.8,4.5,7.2,11,11.1,15.9,24.4,31.5,50.6,61.7,74.3,93.6,2.4,3.2,5.2,7.2,6.6,10.9"/>
    <path class="st1" d="M356.7,1328.4v10s-7,0-7,0v-25c7.2-1.2,14.7-2.9,22.1-1.6,1.4,1,1.9,14.7-.6,16.6h-14.5Z"/>
    <path class="st1" d="M290.9,1372.8c-.8,2.6-9.3,17-11,19.2-.7.9-1,2.7-2.7,2.3l-5.9-18.9s12.4-1.4,19.6-2.7"/>
  </g>
</svg>