<?xml version="1.0" encoding="UTF-8"?><svg id="Layer_1" xmlns="http://www.w3.org/2000/svg" width="75.49mm" height="97.99mm" viewBox="0 0 214 277.77"><path d="M195.36,197.83c-.91-2.2-15.81-10.44-18.76-11.93-6.01-3.03-12.42-5.72-18.66-8.26-2.87-1.16-21.43-7.49-21.87-8.77l.02-28.38c8.82-8.84,13.61-25.17,13.97-25.21,11.05-1.2,16.91-21.83,10.62-31.71-1.55-2.43-5.55-.54-5.53-.67,1.68-14.3,5.17-36.11-1.49-47.61-9.88-17.07-53.11-50.51-85.42-9.2-21.45,4.95-13.76,35.4-11.19,41.88.86,2.16,1.02,6.88,2.52,15.6-16.3-.6-4.45,31.34,5.55,31.39.25.24,4.79,16.69,12.39,24.46l.53,29.43c-.1.36-1.62,1.08-2.09,1.32-7.4,3.89-19.29,6.91-27.6,10.5-7.08,3.06-14.71,6.55-21.22,10.66-1.56.98-8.79,5.78-9.1,7.09-.28,1.21,1.32,2.38,2.53,2.12.7-.15,171.65.04,173.16.06,1.52.03,2.21-1.4,1.64-2.78ZM115.26,91.46s-.02-.04-.03-.06c-.82-3.97-.27-8.29,1.48-11.81.43.44,1.02.68,1.62.68.34,0,.69-.08,1.01-.24,1.41-.7,10.3-1.59,15.4.02,1.2.38,2.48-.29,2.86-1.49.38-1.2-.29-2.48-1.49-2.86-4.53-1.43-11.74-1.34-16.02-.55,1.58-1.36,3.5-2.31,5.73-2.64,6.91-1,13.04-.56,17.54,5.16,12.81,16.29-11.32,36.27-24.89,20.5-1.54-1.79-2.56-3.94-3.12-6.24,0-.16-.01-.32-.08-.48ZM144.3,75.84c-1.05-1.24-3.45-3.12-4.79-3.88-3.83-2.19-16.8-2.93-21.44,2.45-3,3.49-4.6,6.6-5.14,10.31-.2,1.37-.23,2.68-.14,3.92-1.25-.86-2.79-1.46-4.38-1.61-2.14-.21-4.13.33-5.8,1.53.08-1.21.05-2.5-.14-3.84-.54-3.71-2.59-8.72-6.78-11.72-2.59-1.85-10.69-5.4-19.81-1.05-1.39.66-3.74,2.64-4.79,3.88-.6.72-1.14,1.44-1.62,2.16h-6.94c-.26-11.79,1.95-31.05,17.42-41.99,3.61-2.55,11.18,2.02,14.69-1.27,9.44-8.85,43.32,8.82,47.88,11.28,4.47,2.42,8.27,24.37,8.64,29.96.04.67.08,1.35.12,2.03h-5.36c-.48-.72-1.01-1.44-1.62-2.16ZM72.04,77.68c4.5-5.72,10.63-6.16,17.54-5.16,2.21.32,4.11,1.26,5.69,2.6-4.55-.76-12.12-.83-16.89.57-1.21.35-1.9,1.62-1.54,2.83.36,1.21,1.62,1.9,2.83,1.54,5.27-1.55,14.96-.82,16.72,0,.31.14.64.21.96.21.52,0,1.03-.18,1.43-.51,1.62,3.37,2.17,7.45,1.47,11.25-.09.17-.12.35-.11.53-.53,2.44-1.58,4.75-3.2,6.64-13.57,15.77-37.7-4.21-24.89-20.5ZM161.13,90.07c1.51,8.69-3.45,20.44-8.59,21.38-.31.06-1.6.14-1.67-.01-.15-.32,1.21-7.85,1.44-8.58.95-3.01,4.54-5.28,4.66-5.74.87-3.3-3.59.07-4.04,1.59l1.34-10.7c2.22-2.95,6-2.81,6.85,2.06ZM64.45,111.43c-.07.15-1.36.07-1.67.01-5.14-.94-10.1-12.69-8.59-21.38.85-4.86,4.63-5.01,6.85-2.06l1.34,10.7c-.44-1.53-4.91-4.89-4.04-1.59.12.46,3.71,2.72,4.66,5.74.23.73,1.6,8.26,1.44,8.58ZM76.19,133.3c-9.55-13.76-10.68-29.11-12.77-45.2-.03-.23-.32-1.89-.57-4.53h4.06c-4.61,17.36,21.6,32.23,32.97,13.72.67-1.09,1.58-2.94,2.17-5.27,2.08-2.88,4.74-3.08,6.16-2.94,2.25.22,4.43,1.58,5.16,3.23.02.04.05.07.07.11.59,2.14,1.43,3.84,2.06,4.87,11.37,18.52,37.58,3.65,32.97-13.72h2.94c.05,16.63-3.35,34.85-12.67,48.61-.01.02-.03.04-.04.06-.28.42-.57.83-.87,1.24-.34.48-.69.95-1.04,1.4-.4.52-.82,1.04-1.23,1.54-15.88,19.07-45.43,16.97-59.38-3.12ZM132.82,186.05c-14.65,11.27-46.31,10.13-57.69-5.52-.43-.6-2.89-4.69-2.85-4.98.06-.55,9.06-3.58,9.06-6.2v-20.7l3.93,5.39c12.94,14.84,30.72,14.96,43.68.19l3.32-4.75c.06,11.09-.25,9.13.51,20.19.82,2.78,8.4,5.19,8.51,5.87.35,2.21-6.61,9.08-8.46,10.5Z"/><path d="M107.59,112.96c.25.02.52.04.82.04,2.08,0,5.25-.73,7.73-4.52.31-.48.18-1.12-.3-1.43-.48-.31-1.12-.18-1.43.3-1.66,2.54-4,3.8-6.62,3.56-2.48-.23-4.88-1.85-5.7-3.85-.22-.53-.82-.78-1.35-.56s-.78.82-.56,1.35c1.12,2.71,4.17,4.82,7.42,5.12Z"/><path d="M101.19,133.1c-.47.33-.58.98-.24,1.44.33.47.98.57,1.44.24,3.67-2.61,10.19-1.36,11.44.04.2.23.49.35.77.35.24,0,.49-.09.69-.26.43-.38.47-1.03.09-1.46-2.09-2.35-9.89-3.41-14.19-.35Z"/><path d="M96.08,120.07c3.27.74,7.57,1.03,11.69,1.03,5.62,0,10.89-.53,12.68-1.18.54-.19.82-.79.63-1.32-.19-.54-.79-.82-1.32-.63-2.85,1.02-15.93,1.73-23.21.08-.56-.13-1.11.22-1.24.78s.22,1.11.78,1.24Z"/><path d="M125.61,91.88c1.86,0,3.36-1.51,3.36-3.36v-5.97c0-.33-.27-.6-.6-.6h-5.54c-.33,0-.6.27-.6.6v5.97c0,1.86,1.51,3.36,3.36,3.36Z"/><path d="M88.6,91.88c1.86,0,3.36-1.51,3.36-3.36v-5.97c0-.33-.27-.6-.6-.6h-5.54c-.33,0-.6.27-.6.6v5.97c0,1.86,1.51,3.36,3.36,3.36Z"/><path d="M22.83,262.52l-3.46,12.46H7.99l14.83-48.53h14.4l15.05,48.53h-11.81l-3.75-12.46h-13.9ZM35.14,254.31l-3.02-10.3c-.86-2.88-1.73-6.48-2.45-9.36h-.14c-.72,2.88-1.44,6.55-2.23,9.36l-2.88,10.3h10.73Z"/><path d="M57.67,274.98c.14-2.3.29-6.55.29-10.51v-40.61h10.94v20.09h.14c2.09-3.02,5.76-4.97,10.66-4.97,8.42,0,14.62,6.98,14.54,17.79,0,12.67-8.06,19.01-16.13,19.01-4.1,0-8.06-1.51-10.58-5.69h-.14l-.43,4.9h-9.29ZM68.91,260c0,.72.07,1.37.22,1.94.72,2.95,3.24,5.18,6.41,5.18,4.68,0,7.56-3.6,7.56-9.94,0-5.47-2.45-9.79-7.56-9.79-2.95,0-5.69,2.23-6.41,5.4-.14.65-.22,1.3-.22,2.02v5.18Z"/><path d="M136.01,256.97c0,12.89-9.14,18.79-18.58,18.79-10.3,0-18.22-6.77-18.22-18.15s7.49-18.65,18.79-18.65,18,7.42,18,18ZM110.52,257.33c0,6.05,2.52,10.58,7.2,10.58,4.25,0,6.98-4.25,6.98-10.58,0-5.26-2.02-10.58-6.98-10.58-5.26,0-7.2,5.4-7.2,10.58Z"/><path d="M175.97,263.67c0,4.61.14,8.35.29,11.3h-9.5l-.5-4.97h-.22c-1.37,2.16-4.68,5.76-11.02,5.76-7.13,0-12.39-4.46-12.39-15.34v-20.67h11.02v18.94c0,5.11,1.66,8.21,5.47,8.21,3.02,0,4.75-2.09,5.47-3.82.29-.65.36-1.51.36-2.38v-20.95h11.02v23.91Z"/><path d="M196.99,229.68v10.08h7.85v8.06h-7.85v12.75c0,4.25,1.01,6.19,4.32,6.19,1.37,0,2.45-.14,3.24-.29l.07,8.28c-1.44.58-4.03.94-7.13.94-3.53,0-6.48-1.22-8.21-3.02-2.02-2.09-3.02-5.47-3.02-10.44v-14.4h-4.68v-8.06h4.68v-7.63l10.73-2.45Z"/></svg>