<svg width="317" height="91" viewBox="0 0 317 91" fill="none" xmlns="http://www.w3.org/2000/svg">
<g clip-path="url(#clip0_263_25)">
<path d="M132.004 25V0.999999H133.863V4.625H134.051C134.509 3.41667 135.301 2.45833 136.426 1.75C137.551 1.04167 138.905 0.6875 140.488 0.6875C142.228 0.6875 143.629 1.10417 144.691 1.9375C145.764 2.77083 146.535 3.90104 147.004 5.32812H147.176C147.645 3.92187 148.483 2.79687 149.691 1.95312C150.91 1.10938 152.41 0.6875 154.191 0.6875C156.514 0.6875 158.285 1.42187 159.504 2.89062C160.733 4.34896 161.348 6.34896 161.348 8.89063V25H159.441V8.89063C159.441 6.89062 158.962 5.31771 158.004 4.17187C157.046 3.02604 155.639 2.45312 153.785 2.45312C151.806 2.45312 150.285 3.07292 149.223 4.3125C148.16 5.55208 147.629 7.13021 147.629 9.04687V25H145.723V8.76562C145.723 6.90104 145.254 5.38542 144.316 4.21875C143.379 3.04167 141.973 2.45312 140.098 2.45312C138.827 2.45312 137.728 2.74479 136.801 3.32812C135.884 3.91146 135.171 4.71354 134.66 5.73437C134.16 6.75521 133.91 7.92708 133.91 9.25V25H132.004ZM169.93 34C169.451 34 168.977 33.9479 168.508 33.8438C168.039 33.7396 167.617 33.6042 167.242 33.4375L167.805 31.7656C168.784 32.1406 169.669 32.276 170.461 32.1719C171.263 32.0677 171.971 31.7031 172.586 31.0781C173.201 30.4531 173.721 29.5365 174.148 28.3281L175.242 25.3281L166.445 0.999999H168.492L176.117 22.5469H176.273L183.898 0.999999H185.945L175.82 29.0781C175.435 30.1615 174.951 31.0677 174.367 31.7969C173.784 32.526 173.117 33.0729 172.367 33.4375C171.628 33.8125 170.815 34 169.93 34Z" fill="black"/>
<path d="M0.494629 79V39H8.81494V54.0391H9.06885C9.43343 53.2318 9.96077 52.4115 10.6509 51.5781C11.354 50.7318 12.2655 50.0286 13.3853 49.4688C14.5181 48.8958 15.9243 48.6094 17.604 48.6094C19.7915 48.6094 21.8097 49.1823 23.6587 50.3281C25.5076 51.4609 26.9855 53.1732 28.0923 55.4648C29.1991 57.7435 29.7524 60.6016 29.7524 64.0391C29.7524 67.3854 29.2121 70.2109 28.1313 72.5156C27.0636 74.8073 25.6053 76.5456 23.7563 77.7305C21.9204 78.9023 19.8631 79.4883 17.5845 79.4883C15.9699 79.4883 14.5962 79.2214 13.4634 78.6875C12.3436 78.1536 11.4256 77.4831 10.7095 76.6758C9.99333 75.8555 9.44645 75.0286 9.06885 74.1953H8.69775V79H0.494629ZM8.63916 64C8.63916 65.7839 8.88656 67.3398 9.38135 68.668C9.87614 69.9961 10.5923 71.0312 11.5298 71.7734C12.4673 72.5026 13.6066 72.8672 14.9478 72.8672C16.3019 72.8672 17.4478 72.4961 18.3853 71.7539C19.3228 70.9987 20.0324 69.957 20.5142 68.6289C21.009 67.2878 21.2563 65.7448 21.2563 64C21.2563 62.2682 21.0155 60.7448 20.5337 59.4297C20.0519 58.1146 19.3423 57.0859 18.4048 56.3437C17.4673 55.6016 16.3149 55.2305 14.9478 55.2305C13.5936 55.2305 12.4478 55.5885 11.5103 56.3047C10.5858 57.0208 9.87614 58.0365 9.38135 59.3516C8.88656 60.6667 8.63916 62.2161 8.63916 64ZM43.8589 79.5664C41.9448 79.5664 40.2391 79.2344 38.7417 78.5703C37.2443 77.8932 36.0594 76.8971 35.187 75.582C34.3276 74.2539 33.8979 72.6003 33.8979 70.6211C33.8979 68.9544 34.2039 67.5547 34.8159 66.4219C35.4279 65.2891 36.2612 64.3776 37.3159 63.6875C38.3706 62.9974 39.5685 62.4766 40.9097 62.125C42.2638 61.7734 43.6831 61.526 45.1675 61.3828C46.9123 61.2005 48.3185 61.0312 49.3862 60.875C50.4539 60.7057 51.2287 60.4583 51.7104 60.1328C52.1922 59.8073 52.4331 59.3255 52.4331 58.6875V58.5703C52.4331 57.3333 52.0425 56.3763 51.2612 55.6992C50.493 55.0221 49.3993 54.6836 47.98 54.6836C46.4826 54.6836 45.2912 55.0156 44.4058 55.6797C43.5203 56.3307 42.9344 57.151 42.6479 58.1406L34.9526 57.5156C35.3433 55.6927 36.1115 54.1172 37.2573 52.7891C38.4032 51.4479 39.881 50.4193 41.6909 49.7031C43.5138 48.974 45.6232 48.6094 48.019 48.6094C49.6857 48.6094 51.2808 48.8047 52.8042 49.1953C54.3407 49.5859 55.7013 50.1914 56.8862 51.0117C58.0841 51.832 59.0282 52.8867 59.7183 54.1758C60.4084 55.4518 60.7534 56.9818 60.7534 58.7656V79H52.8628V74.8398H52.6284C52.1466 75.7773 51.5021 76.6042 50.6948 77.3203C49.8875 78.0234 48.9175 78.5768 47.7847 78.9805C46.6519 79.3711 45.3433 79.5664 43.8589 79.5664ZM46.2417 73.8242C47.4657 73.8242 48.5464 73.5833 49.4839 73.1016C50.4214 72.6068 51.1571 71.9427 51.6909 71.1094C52.2248 70.276 52.4917 69.332 52.4917 68.2773V65.0938C52.2313 65.263 51.8732 65.4193 51.4175 65.5625C50.9748 65.6927 50.4735 65.8164 49.9136 65.9336C49.3537 66.0378 48.7938 66.1354 48.2339 66.2266C47.674 66.3047 47.1662 66.3763 46.7104 66.4414C45.7339 66.5846 44.881 66.8125 44.1519 67.125C43.4227 67.4375 42.8563 67.8607 42.4526 68.3945C42.049 68.9154 41.8472 69.5664 41.8472 70.3477C41.8472 71.4805 42.2573 72.3464 43.0776 72.9453C43.911 73.5312 44.9657 73.8242 46.2417 73.8242ZM80.7632 79.5859C77.6903 79.5859 75.047 78.9349 72.8335 77.6328C70.633 76.3177 68.9403 74.4948 67.7554 72.1641C66.5835 69.8333 65.9976 67.151 65.9976 64.1172C65.9976 61.0443 66.59 58.349 67.7749 56.0312C68.9728 53.7005 70.672 51.8841 72.8726 50.582C75.0731 49.2669 77.6903 48.6094 80.7241 48.6094C83.3413 48.6094 85.633 49.0846 87.5991 50.0352C89.5653 50.9857 91.1213 52.3203 92.2671 54.0391C93.4129 55.7578 94.0444 57.776 94.1616 60.0938H86.3101C86.0887 58.5964 85.5028 57.3919 84.5522 56.4805C83.6147 55.556 82.3843 55.0937 80.8608 55.0937C79.5718 55.0937 78.4455 55.4453 77.4819 56.1484C76.5314 56.8385 75.7892 57.8477 75.2554 59.1758C74.7215 60.5039 74.4546 62.112 74.4546 64C74.4546 65.9141 74.715 67.5417 75.2358 68.8828C75.7697 70.224 76.5184 71.2461 77.4819 71.9492C78.4455 72.6523 79.5718 73.0039 80.8608 73.0039C81.8114 73.0039 82.6642 72.8086 83.4194 72.418C84.1877 72.0273 84.8192 71.4609 85.314 70.7187C85.8218 69.9635 86.1538 69.0586 86.3101 68.0039H94.1616C94.0314 70.2956 93.4064 72.3138 92.2866 74.0586C91.1799 75.7904 89.6499 77.1445 87.6968 78.1211C85.7437 79.0977 83.4325 79.5859 80.7632 79.5859ZM107.028 70.3672L107.047 60.3867H108.258L117.868 49H127.418L114.508 64.0781H112.536L107.028 70.3672ZM99.4888 79V39H107.809V79H99.4888ZM118.239 79L109.411 65.9336L114.958 60.0547L127.985 79H118.239ZM143.781 90.875C141.085 90.875 138.774 90.5039 136.847 89.7617C134.933 89.0326 133.41 88.0365 132.277 86.7734C131.144 85.5104 130.408 84.0911 130.07 82.5156L137.765 81.4805C138 82.0794 138.371 82.6393 138.878 83.1602C139.386 83.681 140.057 84.0977 140.89 84.4102C141.736 84.7357 142.765 84.8984 143.976 84.8984C145.786 84.8984 147.277 84.4557 148.449 83.5703C149.634 82.6979 150.226 81.2331 150.226 79.1758V73.6875H149.875C149.51 74.5208 148.963 75.3086 148.234 76.0508C147.505 76.793 146.567 77.3984 145.421 77.8672C144.276 78.3359 142.908 78.5703 141.32 78.5703C139.067 78.5703 137.016 78.0495 135.167 77.0078C133.332 75.9531 131.867 74.3451 130.773 72.1836C129.692 70.0091 129.152 67.2617 129.152 63.9414C129.152 60.543 129.705 57.7044 130.812 55.4258C131.919 53.1471 133.39 51.4414 135.226 50.3086C137.075 49.1758 139.1 48.6094 141.3 48.6094C142.98 48.6094 144.386 48.8958 145.519 49.4688C146.652 50.0286 147.563 50.7318 148.253 51.5781C148.957 52.4115 149.497 53.2318 149.875 54.0391H150.187V49H158.449V79.293C158.449 81.8451 157.824 83.9805 156.574 85.6992C155.324 87.418 153.592 88.707 151.378 89.5664C149.178 90.4388 146.645 90.875 143.781 90.875ZM143.957 72.3203C145.298 72.3203 146.431 71.9883 147.355 71.3242C148.292 70.6471 149.009 69.6836 149.503 68.4336C150.011 67.1706 150.265 65.6602 150.265 63.9023C150.265 62.1445 150.018 60.6211 149.523 59.332C149.028 58.0299 148.312 57.0208 147.375 56.3047C146.437 55.5885 145.298 55.2305 143.957 55.2305C142.589 55.2305 141.437 55.6016 140.5 56.3437C139.562 57.0729 138.852 58.0885 138.371 59.3906C137.889 60.6927 137.648 62.1966 137.648 63.9023C137.648 65.6341 137.889 67.1315 138.371 68.3945C138.865 69.6445 139.575 70.6146 140.5 71.3047C141.437 71.9818 142.589 72.3203 143.957 72.3203ZM165.07 79V49H173.136V54.2344H173.449C173.996 52.3724 174.914 50.9661 176.203 50.0156C177.492 49.0521 178.976 48.5703 180.656 48.5703C181.072 48.5703 181.522 48.5964 182.003 48.6484C182.485 48.7005 182.908 48.7721 183.273 48.8633V56.2461C182.882 56.1289 182.342 56.0247 181.652 55.9336C180.962 55.8424 180.33 55.7969 179.757 55.7969C178.533 55.7969 177.44 56.0638 176.476 56.5977C175.526 57.1185 174.77 57.8477 174.21 58.7852C173.664 59.7227 173.39 60.8034 173.39 62.0273V79H165.07ZM199.733 79.5859C196.699 79.5859 194.075 78.9414 191.862 77.6523C189.661 76.3503 187.962 74.5404 186.764 72.2227C185.566 69.8919 184.967 67.1901 184.967 64.1172C184.967 61.0182 185.566 58.3099 186.764 55.9922C187.962 53.6615 189.661 51.8516 191.862 50.5625C194.075 49.2604 196.699 48.6094 199.733 48.6094C202.767 48.6094 205.384 49.2604 207.584 50.5625C209.798 51.8516 211.504 53.6615 212.702 55.9922C213.9 58.3099 214.499 61.0182 214.499 64.1172C214.499 67.1901 213.9 69.8919 212.702 72.2227C211.504 74.5404 209.798 76.3503 207.584 77.6523C205.384 78.9414 202.767 79.5859 199.733 79.5859ZM199.772 73.1406C201.152 73.1406 202.305 72.75 203.229 71.9688C204.153 71.1745 204.85 70.0937 205.319 68.7266C205.801 67.3594 206.042 65.8034 206.042 64.0586C206.042 62.3138 205.801 60.7578 205.319 59.3906C204.85 58.0234 204.153 56.9427 203.229 56.1484C202.305 55.3542 201.152 54.957 199.772 54.957C198.379 54.957 197.207 55.3542 196.256 56.1484C195.319 56.9427 194.609 58.0234 194.127 59.3906C193.659 60.7578 193.424 62.3138 193.424 64.0586C193.424 65.8034 193.659 67.3594 194.127 68.7266C194.609 70.0937 195.319 71.1745 196.256 71.9688C197.207 72.75 198.379 73.1406 199.772 73.1406ZM239.147 66.2266V49H247.467V79H239.479V73.5508H239.167C238.489 75.3086 237.363 76.7214 235.788 77.7891C234.225 78.8568 232.318 79.3906 230.065 79.3906C228.06 79.3906 226.295 78.9349 224.772 78.0234C223.249 77.112 222.057 75.8164 221.198 74.1367C220.351 72.457 219.922 70.4453 219.909 68.1016V49H228.229V66.6172C228.242 68.388 228.717 69.7878 229.655 70.8164C230.592 71.8451 231.849 72.3594 233.424 72.3594C234.427 72.3594 235.364 72.1315 236.237 71.6758C237.109 71.207 237.812 70.5169 238.346 69.6055C238.893 68.694 239.16 67.5677 239.147 66.2266ZM262.443 61.6563V79H254.123V49H262.052V54.293H262.404C263.068 52.5482 264.181 51.168 265.744 50.1523C267.306 49.1237 269.201 48.6094 271.427 48.6094C273.511 48.6094 275.327 49.0651 276.876 49.9766C278.426 50.888 279.63 52.1901 280.49 53.8828C281.349 55.5625 281.779 57.5677 281.779 59.8984V79H273.458V61.3828C273.472 59.5469 273.003 58.1146 272.052 57.0859C271.102 56.0443 269.793 55.5234 268.126 55.5234C267.007 55.5234 266.017 55.7643 265.158 56.2461C264.311 56.7279 263.647 57.431 263.166 58.3555C262.697 59.2669 262.456 60.3672 262.443 61.6563ZM299.391 79.4883C297.112 79.4883 295.049 78.9023 293.2 77.7305C291.364 76.5456 289.905 74.8073 288.825 72.5156C287.757 70.2109 287.223 67.3854 287.223 64.0391C287.223 60.6016 287.777 57.7435 288.883 55.4648C289.99 53.1732 291.461 51.4609 293.297 50.3281C295.146 49.1823 297.171 48.6094 299.372 48.6094C301.051 48.6094 302.451 48.8958 303.571 49.4688C304.704 50.0286 305.615 50.7318 306.305 51.5781C307.008 52.4115 307.542 53.2318 307.907 54.0391H308.161V39H316.461V79H308.258V74.1953H307.907C307.516 75.0286 306.963 75.8555 306.247 76.6758C305.543 77.4831 304.625 78.1536 303.493 78.6875C302.373 79.2214 301.006 79.4883 299.391 79.4883ZM302.028 72.8672C303.369 72.8672 304.502 72.5026 305.426 71.7734C306.364 71.0312 307.08 69.9961 307.575 68.668C308.083 67.3398 308.336 65.7839 308.336 64C308.336 62.2161 308.089 60.6667 307.594 59.3516C307.099 58.0365 306.383 57.0208 305.446 56.3047C304.508 55.5885 303.369 55.2305 302.028 55.2305C300.661 55.2305 299.508 55.6016 298.571 56.3437C297.633 57.0859 296.924 58.1146 296.442 59.4297C295.96 60.7448 295.719 62.2682 295.719 64C295.719 65.7448 295.96 67.2878 296.442 68.6289C296.937 69.957 297.646 70.9987 298.571 71.7539C299.508 72.4961 300.661 72.8672 302.028 72.8672Z" fill="black"/>
</g>
<defs>
<clipPath id="clip0_263_25">
<rect width="317" height="91" fill="white"/>
</clipPath>
</defs>
</svg>
