<?xml version="1.0" encoding="UTF-8"?><svg id="Layer_1" xmlns="http://www.w3.org/2000/svg" width="88.15mm" height="66.96mm" viewBox="0 0 249.86 189.81"><path d="M40.51,185.19c-2.02,1.01-6.55,2.09-12.46,2.09-16.78,0-25.42-10.44-25.42-24.27,0-16.56,11.81-25.78,26.5-25.78,5.69,0,10.01,1.15,11.95,2.16l-2.23,8.71c-2.23-.94-5.33-1.8-9.22-1.8-8.71,0-15.48,5.26-15.48,16.06,0,9.72,5.76,15.84,15.55,15.84,3.31,0,6.98-.72,9.14-1.58l1.66,8.57Z"/><path d="M80.76,168.56c0,12.89-9.15,18.79-18.58,18.79-10.3,0-18.22-6.77-18.22-18.15s7.49-18.65,18.79-18.65,18,7.42,18,18ZM55.27,168.92c0,6.05,2.52,10.58,7.2,10.58,4.25,0,6.98-4.25,6.98-10.58,0-5.26-2.02-10.58-6.98-10.58-5.26,0-7.2,5.4-7.2,10.58Z"/><path d="M87.53,162.58c0-4.39-.14-8.14-.29-11.23h9.5l.5,4.82h.22c1.44-2.23,5.04-5.62,10.87-5.62,7.2,0,12.6,4.75,12.6,15.12v20.88h-10.95v-19.51c0-4.54-1.58-7.63-5.54-7.63-3.02,0-4.82,2.09-5.54,4.1-.29.65-.43,1.73-.43,2.74v20.31h-10.94v-23.98Z"/><path d="M141.53,141.27v10.08h7.85v8.06h-7.85v12.75c0,4.25,1.01,6.19,4.32,6.19,1.37,0,2.45-.14,3.24-.29l.07,8.28c-1.44.58-4.03.94-7.13.94-3.53,0-6.48-1.22-8.21-3.02-2.02-2.09-3.02-5.47-3.02-10.44v-14.4h-4.68v-8.06h4.68v-7.63l10.73-2.45Z"/><path d="M175.73,186.56l-.65-3.53h-.22c-2.3,2.81-5.9,4.32-10.08,4.32-7.13,0-11.38-5.18-11.38-10.8,0-9.14,8.21-13.54,20.67-13.46v-.5c0-1.87-1.01-4.54-6.41-4.54-3.6,0-7.42,1.22-9.72,2.66l-2.02-7.06c2.45-1.37,7.27-3.1,13.68-3.1,11.74,0,15.48,6.91,15.48,15.19v12.24c0,3.38.14,6.62.5,8.57h-9.87ZM174.43,169.93c-5.76-.07-10.23,1.3-10.23,5.54,0,2.81,1.87,4.18,4.32,4.18,2.74,0,4.97-1.8,5.69-4.03.14-.58.22-1.22.22-1.87v-3.82Z"/><path d="M220.15,185.7c-1.94.86-5.62,1.58-9.79,1.58-11.38,0-18.65-6.91-18.65-18,0-10.3,7.06-18.72,20.16-18.72,2.88,0,6.05.5,8.35,1.37l-1.73,8.14c-1.3-.58-3.24-1.08-6.12-1.08-5.76,0-9.5,4.1-9.43,9.86,0,6.48,4.32,9.87,9.65,9.87,2.59,0,4.61-.43,6.26-1.08l1.3,8.06Z"/><path d="M239.59,141.27v10.08h7.85v8.06h-7.85v12.75c0,4.25,1.01,6.19,4.32,6.19,1.37,0,2.45-.14,3.24-.29l.07,8.28c-1.44.58-4.03.94-7.13.94-3.53,0-6.48-1.22-8.21-3.02-2.02-2.09-3.02-5.47-3.02-10.44v-14.4h-4.68v-8.06h4.68v-7.63l10.73-2.45Z"/><path d="M197.92,34.33c-1.71,18.54,2.29,41.34,0,59.38-1.09,8.61-9.55,17.33-18.14,18.4l-109.7.07c-8.37.05-19.22-10.6-19.22-18.76v-59.09l71.08,43.11h4.91l71.08-43.11Z"/><path d="M68.53,3.93l111.23-.09c8.4,1.42,15.35,8.12,17.4,16.38l-73.02,44.66L51.94,20.81l-.27-.92c2.16-7.9,8.76-14.39,16.85-15.96Z"/></svg>