<svg width="205" height="82" viewBox="0 0 205 82" fill="none" xmlns="http://www.w3.org/2000/svg">
<g clip-path="url(#clip0_263_37)">
<path d="M15.2935 38.5859C12.2205 38.5859 9.57731 37.9349 7.36377 36.6328C5.16325 35.3177 3.47054 33.4948 2.28564 31.1641C1.11377 28.8333 0.527832 26.151 0.527832 23.1172C0.527832 20.0443 1.12028 17.349 2.30518 15.0312C3.50309 12.7005 5.20231 10.8841 7.40283 9.58203C9.60335 8.26693 12.2205 7.60938 15.2544 7.60938C17.8716 7.60938 20.1632 8.08463 22.1294 9.03515C24.0955 9.98568 25.6515 11.3203 26.7974 13.0391C27.9432 14.7578 28.5747 16.776 28.6919 19.0938H20.8403C20.619 17.5964 20.033 16.3919 19.0825 15.4805C18.145 14.556 16.9146 14.0937 15.3911 14.0937C14.1021 14.0937 12.9757 14.4453 12.0122 15.1484C11.0617 15.8385 10.3195 16.8477 9.78564 18.1758C9.25179 19.5039 8.98486 21.112 8.98486 23C8.98486 24.9141 9.24528 26.5417 9.76611 27.8828C10.3 29.224 11.0487 30.2461 12.0122 30.9492C12.9757 31.6523 14.1021 32.0039 15.3911 32.0039C16.3416 32.0039 17.1945 31.8086 17.9497 31.418C18.7179 31.0273 19.3494 30.4609 19.8442 29.7187C20.3521 28.9635 20.6841 28.0586 20.8403 27.0039H28.6919C28.5617 29.2956 27.9367 31.3138 26.8169 33.0586C25.7101 34.7904 24.1802 36.1445 22.2271 37.1211C20.2739 38.0977 17.9627 38.5859 15.2935 38.5859ZM47.5737 38.5859C44.5399 38.5859 41.9162 37.9414 39.7026 36.6523C37.5021 35.3503 35.8029 33.5404 34.605 31.2227C33.4071 28.8919 32.8081 26.1901 32.8081 23.1172C32.8081 20.0182 33.4071 17.3099 34.605 14.9922C35.8029 12.6615 37.5021 10.8516 39.7026 9.5625C41.9162 8.26042 44.5399 7.60938 47.5737 7.60938C50.6076 7.60938 53.2248 8.26042 55.4253 9.5625C57.6388 10.8516 59.3446 12.6615 60.5425 14.9922C61.7404 17.3099 62.3394 20.0182 62.3394 23.1172C62.3394 26.1901 61.7404 28.8919 60.5425 31.2227C59.3446 33.5404 57.6388 35.3503 55.4253 36.6523C53.2248 37.9414 50.6076 38.5859 47.5737 38.5859ZM47.6128 32.1406C48.993 32.1406 50.1453 31.75 51.0698 30.9688C51.9943 30.1745 52.6909 29.0937 53.1597 27.7266C53.6414 26.3594 53.8823 24.8034 53.8823 23.0586C53.8823 21.3138 53.6414 19.7578 53.1597 18.3906C52.6909 17.0234 51.9943 15.9427 51.0698 15.1484C50.1453 14.3542 48.993 13.957 47.6128 13.957C46.2196 13.957 45.0477 14.3542 44.0972 15.1484C43.1597 15.9427 42.45 17.0234 41.9683 18.3906C41.4995 19.7578 41.2651 21.3138 41.2651 23.0586C41.2651 24.8034 41.4995 26.3594 41.9683 27.7266C42.45 29.0937 43.1597 30.1745 44.0972 30.9688C45.0477 31.75 46.2196 32.1406 47.6128 32.1406ZM76.0698 20.6563V38H67.7495V8H75.6792V13.293H76.0308C76.6948 11.5482 77.8081 10.168 79.3706 9.15234C80.9331 8.1237 82.8276 7.60938 85.0542 7.60938C87.1375 7.60938 88.9539 8.0651 90.5034 8.97656C92.0529 9.88802 93.2573 11.1901 94.1167 12.8828C94.9761 14.5625 95.4058 16.5677 95.4058 18.8984V38H87.0855V20.3828C87.0985 18.5469 86.6297 17.1146 85.6792 16.0859C84.7287 15.0443 83.4201 14.5234 81.7534 14.5234C80.6336 14.5234 79.644 14.7643 78.7847 15.2461C77.9383 15.7279 77.2743 16.431 76.7925 17.3555C76.3237 18.2669 76.0828 19.3672 76.0698 20.6563ZM117.92 8V14.25H99.854V8H117.92ZM103.956 0.8125H112.276V28.7812C112.276 29.5495 112.393 30.1484 112.627 30.5781C112.862 30.9948 113.187 31.2878 113.604 31.457C114.034 31.6263 114.528 31.7109 115.088 31.7109C115.479 31.7109 115.87 31.6784 116.26 31.6133C116.651 31.5352 116.95 31.4766 117.159 31.4375L118.467 37.6289C118.051 37.7591 117.465 37.9089 116.709 38.0781C115.954 38.2604 115.036 38.3711 113.956 38.4102C111.95 38.4883 110.193 38.2214 108.682 37.6094C107.185 36.9974 106.019 36.0469 105.186 34.7578C104.353 33.4687 103.943 31.8411 103.956 29.875V0.8125ZM131.895 38.5664C129.981 38.5664 128.275 38.2344 126.778 37.5703C125.28 36.8932 124.096 35.8971 123.223 34.582C122.364 33.2539 121.934 31.6003 121.934 29.6211C121.934 27.9544 122.24 26.5547 122.852 25.4219C123.464 24.2891 124.297 23.3776 125.352 22.6875C126.407 21.9974 127.605 21.4766 128.946 21.125C130.3 20.7734 131.719 20.526 133.204 20.3828C134.948 20.2005 136.355 20.0312 137.422 19.875C138.49 19.7057 139.265 19.4583 139.747 19.1328C140.228 18.8073 140.469 18.3255 140.469 17.6875V17.5703C140.469 16.3333 140.079 15.3763 139.297 14.6992C138.529 14.0221 137.435 13.6836 136.016 13.6836C134.519 13.6836 133.327 14.0156 132.442 14.6797C131.556 15.3307 130.971 16.151 130.684 17.1406L122.989 16.5156C123.379 14.6927 124.148 13.1172 125.293 11.7891C126.439 10.4479 127.917 9.41927 129.727 8.70312C131.55 7.97396 133.659 7.60938 136.055 7.60938C137.722 7.60938 139.317 7.80469 140.84 8.19531C142.377 8.58594 143.737 9.19141 144.922 10.0117C146.12 10.832 147.064 11.8867 147.754 13.1758C148.444 14.4518 148.79 15.9818 148.79 17.7656V38H140.899V33.8398H140.665C140.183 34.7773 139.538 35.6042 138.731 36.3203C137.924 37.0234 136.954 37.5768 135.821 37.9805C134.688 38.3711 133.379 38.5664 131.895 38.5664ZM134.278 32.8242C135.502 32.8242 136.583 32.5833 137.52 32.1016C138.458 31.6068 139.193 30.9427 139.727 30.1094C140.261 29.276 140.528 28.332 140.528 27.2773V24.0938C140.267 24.263 139.909 24.4193 139.454 24.5625C139.011 24.6927 138.51 24.8164 137.95 24.9336C137.39 25.0378 136.83 25.1354 136.27 25.2266C135.71 25.3047 135.202 25.3763 134.747 25.4414C133.77 25.5846 132.917 25.8125 132.188 26.125C131.459 26.4375 130.892 26.8607 130.489 27.3945C130.085 27.9154 129.883 28.5664 129.883 29.3477C129.883 30.4805 130.293 31.3464 131.114 31.9453C131.947 32.5312 133.002 32.8242 134.278 32.8242ZM168.799 38.5859C165.726 38.5859 163.083 37.9349 160.87 36.6328C158.669 35.3177 156.976 33.4948 155.792 31.1641C154.62 28.8333 154.034 26.151 154.034 23.1172C154.034 20.0443 154.626 17.349 155.811 15.0312C157.009 12.7005 158.708 10.8841 160.909 9.58203C163.109 8.26693 165.726 7.60938 168.76 7.60938C171.377 7.60938 173.669 8.08463 175.635 9.03515C177.601 9.98568 179.157 11.3203 180.303 13.0391C181.449 14.7578 182.081 16.776 182.198 19.0938H174.346C174.125 17.5964 173.539 16.3919 172.588 15.4805C171.651 14.556 170.42 14.0937 168.897 14.0937C167.608 14.0937 166.482 14.4453 165.518 15.1484C164.568 15.8385 163.825 16.8477 163.292 18.1758C162.758 19.5039 162.491 21.112 162.491 23C162.491 24.9141 162.751 26.5417 163.272 27.8828C163.806 29.224 164.555 30.2461 165.518 30.9492C166.482 31.6523 167.608 32.0039 168.897 32.0039C169.847 32.0039 170.7 31.8086 171.456 31.418C172.224 31.0273 172.855 30.4609 173.35 29.7187C173.858 28.9635 174.19 28.0586 174.346 27.0039H182.198C182.068 29.2956 181.443 31.3138 180.323 33.0586C179.216 34.7904 177.686 36.1445 175.733 37.1211C173.78 38.0977 171.469 38.5859 168.799 38.5859ZM203.482 8V14.25H185.416V8H203.482ZM189.517 0.8125H197.837V28.7812C197.837 29.5495 197.955 30.1484 198.189 30.5781C198.423 30.9948 198.749 31.2878 199.166 31.457C199.595 31.6263 200.09 31.7109 200.65 31.7109C201.041 31.7109 201.431 31.6784 201.822 31.6133C202.212 31.5352 202.512 31.4766 202.72 31.4375L204.029 37.6289C203.612 37.7591 203.026 37.9089 202.271 38.0781C201.516 38.2604 200.598 38.3711 199.517 38.4102C197.512 38.4883 195.754 38.2214 194.244 37.6094C192.746 36.9974 191.581 36.0469 190.748 34.7578C189.914 33.4687 189.504 31.8411 189.517 29.875V0.8125Z" fill="black"/>
<path d="M75.1074 81V57H76.9668V60.625H77.1543C77.6126 59.4167 78.4043 58.4583 79.5293 57.75C80.6543 57.0417 82.0085 56.6875 83.5918 56.6875C85.3314 56.6875 86.7324 57.1042 87.7949 57.9375C88.8678 58.7708 89.6387 59.901 90.1074 61.3281H90.2793C90.748 59.9219 91.5866 58.7969 92.7949 57.9531C94.0137 57.1094 95.5137 56.6875 97.2949 56.6875C99.6178 56.6875 101.389 57.4219 102.607 58.8906C103.837 60.349 104.451 62.349 104.451 64.8906V81H102.545V64.8906C102.545 62.8906 102.066 61.3177 101.107 60.1719C100.149 59.026 98.7428 58.4531 96.8887 58.4531C94.9095 58.4531 93.3887 59.0729 92.3262 60.3125C91.2637 61.5521 90.7324 63.1302 90.7324 65.0469V81H88.8262V64.7656C88.8262 62.901 88.3574 61.3854 87.4199 60.2187C86.4824 59.0417 85.0762 58.4531 83.2012 58.4531C81.9303 58.4531 80.8314 58.7448 79.9043 59.3281C78.9876 59.9115 78.2741 60.7135 77.7637 61.7344C77.2637 62.7552 77.0137 63.9271 77.0137 65.25V81H75.1074ZM121.721 81.5C119.554 81.5 117.669 80.9635 116.064 79.8906C114.46 78.8177 113.221 77.349 112.346 75.4844C111.471 73.6198 111.033 71.4948 111.033 69.1094C111.033 66.7135 111.471 64.5781 112.346 62.7031C113.231 60.8281 114.445 59.349 115.986 58.2656C117.528 57.1823 119.288 56.6406 121.268 56.6406C122.611 56.6406 123.882 56.9115 125.08 57.4531C126.288 57.9844 127.351 58.7552 128.268 59.7656C129.195 60.776 129.919 61.9948 130.439 63.4219C130.971 64.849 131.236 66.4531 131.236 68.2344V69.4219H112.236V67.6875H129.33C129.33 65.9479 128.976 64.3802 128.268 62.9844C127.559 61.5885 126.596 60.4792 125.377 59.6562C124.158 58.8333 122.788 58.4219 121.268 58.4219C119.674 58.4219 118.252 58.8698 117.002 59.7656C115.762 60.651 114.778 61.849 114.049 63.3594C113.33 64.8698 112.955 66.5573 112.924 68.4219V69.2031C112.924 71.2031 113.273 73 113.971 74.5937C114.679 76.1771 115.689 77.4323 117.002 78.3594C118.314 79.276 119.887 79.7344 121.721 79.7344C123.033 79.7344 124.153 79.5156 125.08 79.0781C126.018 78.6302 126.783 78.0885 127.377 77.4531C127.971 76.8177 128.419 76.2031 128.721 75.6094L130.455 76.3125C130.09 77.1146 129.523 77.9167 128.752 78.7187C127.992 79.5104 127.023 80.1719 125.846 80.7031C124.679 81.2344 123.304 81.5 121.721 81.5Z" fill="black"/>
</g>
<defs>
<clipPath id="clip0_263_37">
<rect width="205" height="82" fill="white"/>
</clipPath>
</defs>
</svg>
