<?xml version="1.0" encoding="UTF-8"?><svg id="Layer_1" xmlns="http://www.w3.org/2000/svg" width="44.41mm" height="73.87mm" viewBox="0 0 125.9 209.4"><path d="M58.72,205.24c-2.02,1.01-6.55,2.09-12.46,2.09-16.78,0-25.42-10.44-25.42-24.27,0-16.56,11.81-25.78,26.5-25.78,5.69,0,10.01,1.15,11.95,2.16l-2.23,8.71c-2.23-.94-5.33-1.8-9.22-1.8-8.71,0-15.48,5.26-15.48,16.06,0,9.72,5.76,15.84,15.55,15.84,3.31,0,6.98-.72,9.14-1.58l1.66,8.57Z"/><path d="M78.01,206.6l-15.55-48.53h12.02l5.9,20.52c1.66,5.76,3.17,11.31,4.32,17.35h.22c1.22-5.83,2.74-11.59,4.39-17.14l6.19-20.74h11.67l-16.35,48.53h-12.82Z"/><path d="M117.1,37.51l-29.25-29.31-1.91-1.15-60.94-.07c-9.85.96-16.41,8.3-17.14,18.07l-.02,88.04c.5,10.11,7.63,17.8,17.8,18.56,24.07,1.8,50.36-1.39,74.66,0,10.2-.99,17.01-7.98,17.78-18.2l.02-72.73-.99-3.22ZM69.75,50.98c8.1.63,18.44-1.17,26.28-.06,4.3.61,4.87,5.95.78,7.21h-27.53c-3.6-1.31-3.41-6.46.46-7.16ZM38.37,21.9c12.69-1.98,20.18,11.82,11.99,21.48,3.25,2,8.25,12.96,3.06,14.62-5.56,1.77-4.53-4.73-6.36-7.46-3.2-4.74-10.81-4.08-12.88,1.23-.54,1.39-.39,3.36-.88,4.47-.93,2.09-4.35,2.73-5.93.98-2.97-3.29,1.09-11.42,4.2-13.84-6.5-7.09-2.9-19.96,6.82-21.48ZM97.31,112.99H28.61c-3.07-1.63-3.04-5.57.18-6.9l67.67-.09c3.76.44,4.16,5.41.85,6.99ZM97.31,94.62H28.61c-3.22-1.78-3.02-5.85.56-6.89l66.9-.1c4.11.49,4.73,5.06,1.23,6.99ZM96.08,76.54H29.84c-4.44-.53-4.67-5.71-.68-7.2l68.14.21c3.5,1.93,2.88,6.5-1.23,6.99ZM98.36,36.35c-3.82,0-9.76-5.54-9.76-9.38v-7.08l16.46,16.46h-6.7Z"/><path d="M44.84,38.51c-4.47,4.5-12.73-2-8.11-7.54,4.85-5.81,13.6,2.01,8.11,7.54Z"/></svg>