<svg width="155" height="67" viewBox="0 0 155 67" fill="none" xmlns="http://www.w3.org/2000/svg">
<path d="M4.00391 43V19H5.86328V22.625H6.05078C6.50911 21.4167 7.30078 20.4583 8.42578 19.75C9.55078 19.0417 10.9049 18.6875 12.4883 18.6875C14.2279 18.6875 15.6289 19.1042 16.6914 19.9375C17.7643 20.7708 18.5352 21.901 19.0039 23.3281H19.1758C19.6445 21.9219 20.4831 20.7969 21.6914 19.9531C22.9102 19.1094 24.4102 18.6875 26.1914 18.6875C28.5143 18.6875 30.2852 19.4219 31.5039 20.8906C32.7331 22.349 33.3477 24.349 33.3477 26.8906V43H31.4414V26.8906C31.4414 24.8906 30.9622 23.3177 30.0039 22.1719C29.0456 21.026 27.6393 20.4531 25.7852 20.4531C23.806 20.4531 22.2852 21.0729 21.2227 22.3125C20.1602 23.5521 19.6289 25.1302 19.6289 27.0469V43H17.7227V26.7656C17.7227 24.901 17.2539 23.3854 16.3164 22.2187C15.3789 21.0417 13.9727 20.4531 12.0977 20.4531C10.8268 20.4531 9.72786 20.7448 8.80078 21.3281C7.88411 21.9115 7.17057 22.7135 6.66016 23.7344C6.16016 24.7552 5.91016 25.9271 5.91016 27.25V43H4.00391ZM41.9297 52C41.4505 52 40.9766 51.9479 40.5078 51.8438C40.0391 51.7396 39.6172 51.6042 39.2422 51.4375L39.8047 49.7656C40.7839 50.1406 41.6693 50.276 42.4609 50.1719C43.263 50.0677 43.9714 49.7031 44.5859 49.0781C45.2005 48.4531 45.7214 47.5365 46.1484 46.3281L47.2422 43.3281L38.4453 19H40.4922L48.1172 40.5469H48.2734L55.8984 19H57.9453L47.8203 47.0781C47.4349 48.1615 46.9505 49.0677 46.3672 49.7969C45.7839 50.526 45.1172 51.0729 44.3672 51.4375C43.6276 51.8125 42.8151 52 41.9297 52Z" fill="black"/>
<path d="M111.02 28.0039H102.465C102.309 26.8971 101.99 25.9141 101.508 25.0547C101.026 24.1823 100.408 23.4401 99.6523 22.8281C98.8971 22.2161 98.0247 21.7474 97.0352 21.4219C96.0586 21.0964 94.9974 20.9336 93.8516 20.9336C91.7813 20.9336 89.9779 21.4479 88.4414 22.4766C86.9049 23.4922 85.7135 24.9766 84.8672 26.9297C84.0208 28.8698 83.5977 31.2266 83.5977 34C83.5977 36.8516 84.0208 39.2474 84.8672 41.1875C85.7266 43.1276 86.9245 44.5924 88.4609 45.582C89.9974 46.5716 91.7747 47.0664 93.793 47.0664C94.9258 47.0664 95.974 46.9167 96.9375 46.6172C97.9141 46.3177 98.7799 45.8815 99.5352 45.3086C100.29 44.7227 100.915 44.013 101.41 43.1797C101.918 42.3464 102.27 41.3958 102.465 40.3281L111.02 40.3672C110.798 42.2031 110.245 43.974 109.359 45.6797C108.487 47.3724 107.309 48.8893 105.824 50.2305C104.353 51.5586 102.595 52.6133 100.551 53.3945C98.5195 54.1628 96.2214 54.5469 93.6563 54.5469C90.0885 54.5469 86.8984 53.7396 84.0859 52.125C81.2865 50.5104 79.0729 48.1732 77.4453 45.1133C75.8307 42.0534 75.0234 38.349 75.0234 34C75.0234 29.638 75.8438 25.9271 77.4844 22.8672C79.125 19.8073 81.3516 17.4766 84.1641 15.875C86.9766 14.2604 90.1406 13.4531 93.6563 13.4531C95.974 13.4531 98.1224 13.7786 100.102 14.4297C102.094 15.0807 103.858 16.0312 105.395 17.2812C106.931 18.5182 108.181 20.0352 109.145 21.832C110.121 23.6289 110.746 25.6862 111.02 28.0039ZM124.311 14L133.979 44.3906H134.35L144.037 14H153.412L139.623 54H128.725L114.916 14H124.311Z" fill="black"/>
</svg>
