<?xml version="1.0" encoding="UTF-8"?><svg id="Layer_1" xmlns="http://www.w3.org/2000/svg" width="108.33mm" height="75.45mm" viewBox="0 0 307.09 213.87"><path d="M34.2,179.09h-17.86v11.52h19.95v9H5.32v-48.53h29.96v9h-18.94v10.08h17.86v8.93Z"/><path d="M51.76,164.4l3.46,5.83c1.01,1.8,1.94,3.6,2.88,5.26h.14c.94-1.87,1.8-3.67,2.74-5.4l3.1-5.69h11.88l-11.59,16.78,11.74,18.43h-12.38l-3.53-6.34c-1.01-1.73-1.87-3.53-2.74-5.33h-.22c-.86,1.87-1.8,3.6-2.66,5.33l-3.31,6.34h-12.03l11.95-17.93-11.66-17.28h12.24Z"/><path d="M80.78,176.21c0-4.61-.14-8.57-.29-11.81h9.5l.5,4.9h.14c2.59-3.74,6.62-5.69,11.74-5.69,7.71,0,14.62,6.7,14.62,17.93,0,12.82-8.14,18.87-15.98,18.87-4.25,0-7.56-1.73-9.14-4.03h-.14v17.5h-10.95v-37.66ZM91.72,184.49c0,.86.07,1.66.22,2.3.72,2.95,3.24,5.18,6.41,5.18,4.75,0,7.56-3.96,7.56-9.94,0-5.62-2.52-9.87-7.42-9.87-3.1,0-5.83,2.3-6.55,5.54-.14.58-.22,1.3-.22,1.94v4.82Z"/><path d="M132.47,185.5c.36,4.54,4.82,6.7,9.94,6.7,3.74,0,6.77-.5,9.72-1.44l1.44,7.42c-3.6,1.44-7.99,2.16-12.75,2.16-11.95,0-18.79-6.91-18.79-17.93,0-8.93,5.54-18.79,17.79-18.79,11.38,0,15.7,8.86,15.7,17.57,0,1.87-.21,3.53-.36,4.32h-22.68ZM145.36,178.01c0-2.66-1.15-7.13-6.19-7.13-4.61,0-6.48,4.18-6.77,7.13h12.96Z"/><path d="M162.07,175.99c0-5.18-.14-8.57-.29-11.59h9.43l.36,6.48h.29c1.8-5.11,6.12-7.27,9.5-7.27,1.01,0,1.51,0,2.3.14v10.3c-.79-.14-1.73-.29-2.95-.29-4.03,0-6.77,2.16-7.49,5.54-.14.72-.22,1.58-.22,2.45v17.86h-10.94v-23.62Z"/><path d="M203.18,154.32v10.08h7.85v8.06h-7.85v12.75c0,4.25,1.01,6.19,4.32,6.19,1.37,0,2.45-.14,3.24-.29l.07,8.28c-1.44.58-4.03.94-7.13.94-3.53,0-6.48-1.22-8.21-3.02-2.02-2.09-3.02-5.47-3.02-10.44v-14.4h-4.68v-8.06h4.68v-7.63l10.73-2.45Z"/><path d="M228.67,154.61c0,3.02-2.3,5.47-5.9,5.47s-5.76-2.45-5.69-5.47c-.07-3.17,2.23-5.54,5.76-5.54s5.76,2.38,5.83,5.54ZM217.36,199.61v-35.21h10.95v35.21h-10.95Z"/><path d="M237.02,190.03c2.02,1.22,6.19,2.67,9.43,2.67s4.68-1.15,4.68-2.95-1.08-2.66-5.19-4.03c-7.27-2.45-10.08-6.41-10.01-10.58,0-6.55,5.62-11.52,14.33-11.52,4.11,0,7.78.94,9.94,2.02l-1.94,7.56c-1.58-.86-4.61-2.02-7.63-2.02-2.66,0-4.18,1.08-4.18,2.88,0,1.66,1.37,2.52,5.69,4.03,6.7,2.3,9.5,5.69,9.58,10.87,0,6.55-5.18,11.38-15.27,11.38-4.61,0-8.71-1.01-11.38-2.45l1.95-7.85Z"/><path d="M276.76,185.5c.36,4.54,4.82,6.7,9.94,6.7,3.74,0,6.77-.5,9.72-1.44l1.44,7.42c-3.6,1.44-7.99,2.16-12.74,2.16-11.95,0-18.79-6.91-18.79-17.93,0-8.93,5.54-18.79,17.79-18.79,11.38,0,15.7,8.86,15.7,17.57,0,1.87-.22,3.53-.36,4.32h-22.68ZM289.65,178.01c0-2.66-1.15-7.13-6.19-7.13-4.61,0-6.48,4.18-6.77,7.13h12.96Z"/><path d="M108.92,93.46c.56.54.17,1.25-.18,1.75-1.12,1.59-7.11,6.27-7.41,7.27-.54,1.78,1.61,8.36,1.65,10.8.02.98-.45,1.55-1.46,1.2l-9.52-4.95-9.73,4.96-1.47-.3-.2-.89,1.85-10.6-7.65-7.49c-.52-.54-.65-1.27-.08-1.83l11.36-1.71,4.96-10.09c.43-.34,1.05-.34,1.48,0l5.02,9.91,11.4,1.96Z"/><path d="M126.67,125.24c-2.41-1.01-3.69-2.56-3.6-5.26l6.54-38.34-27.8-27.04c-2.51-2.88-1.24-7.1,2.46-8.04l38.65-5.65,17.39-34.98c2.04-2.98,6.07-2.93,8.12,0l17.39,34.98,38.87,5.69c1.91.53,2.74,1.83,3.53,3.52v2.31l-1.53,2.44-27.56,26.77,6.54,38.34c.09,2.71-1.2,4.25-3.6,5.26h-2.31l-35.3-18.4-35.47,18.4h-2.31Z"/></svg>