<svg width="292" height="95" viewBox="0 0 292 95" fill="none" xmlns="http://www.w3.org/2000/svg">
<g clip-path="url(#clip0_263_33)">
<path d="M119.004 25V0.999999H120.863V4.625H121.051C121.509 3.41667 122.301 2.45833 123.426 1.75C124.551 1.04167 125.905 0.6875 127.488 0.6875C129.228 0.6875 130.629 1.10417 131.691 1.9375C132.764 2.77083 133.535 3.90104 134.004 5.32812H134.176C134.645 3.92187 135.483 2.79687 136.691 1.95312C137.91 1.10938 139.41 0.6875 141.191 0.6875C143.514 0.6875 145.285 1.42187 146.504 2.89062C147.733 4.34896 148.348 6.34896 148.348 8.89063V25H146.441V8.89063C146.441 6.89062 145.962 5.31771 145.004 4.17187C144.046 3.02604 142.639 2.45312 140.785 2.45312C138.806 2.45312 137.285 3.07292 136.223 4.3125C135.16 5.55208 134.629 7.13021 134.629 9.04687V25H132.723V8.76562C132.723 6.90104 132.254 5.38542 131.316 4.21875C130.379 3.04167 128.973 2.45312 127.098 2.45312C125.827 2.45312 124.728 2.74479 123.801 3.32812C122.884 3.91146 122.171 4.71354 121.66 5.73437C121.16 6.75521 120.91 7.92708 120.91 9.25V25H119.004ZM156.93 34C156.451 34 155.977 33.9479 155.508 33.8438C155.039 33.7396 154.617 33.6042 154.242 33.4375L154.805 31.7656C155.784 32.1406 156.669 32.276 157.461 32.1719C158.263 32.0677 158.971 31.7031 159.586 31.0781C160.201 30.4531 160.721 29.5365 161.148 28.3281L162.242 25.3281L153.445 0.999999H155.492L163.117 22.5469H163.273L170.898 0.999999H172.945L162.82 29.0781C162.435 30.1615 161.951 31.0677 161.367 31.7969C160.784 32.526 160.117 33.0729 159.367 33.4375C158.628 33.8125 157.815 34 156.93 34Z" fill="black"/>
<path d="M8.11719 74.3672L8.13672 64.3867H9.34766L18.957 53H28.5078L15.5977 68.0781H13.625L8.11719 74.3672ZM0.578125 83V43H8.89844V83H0.578125ZM19.3281 83L10.5 69.9336L16.0469 64.0547L29.0742 83H19.3281ZM40.9102 65.6563V83H32.5898V53H40.5195V58.293H40.8711C41.5352 56.5482 42.6484 55.168 44.2109 54.1523C45.7734 53.1237 47.668 52.6094 49.8945 52.6094C51.9779 52.6094 53.7943 53.0651 55.3438 53.9766C56.8932 54.888 58.0977 56.1901 58.957 57.8828C59.8164 59.5625 60.2461 61.5677 60.2461 63.8984V83H51.9258V65.3828C51.9388 63.5469 51.4701 62.1146 50.5195 61.0859C49.569 60.0443 48.2604 59.5234 46.5938 59.5234C45.474 59.5234 44.4844 59.7643 43.625 60.2461C42.7786 60.7279 42.1146 61.431 41.6328 62.3555C41.1641 63.2669 40.9232 64.3672 40.9102 65.6563ZM80.3584 83.5859C77.3245 83.5859 74.7008 82.9414 72.4873 81.6523C70.2868 80.3503 68.5876 78.5404 67.3896 76.2227C66.1917 73.8919 65.5928 71.1901 65.5928 68.1172C65.5928 65.0182 66.1917 62.3099 67.3896 59.9922C68.5876 57.6615 70.2868 55.8516 72.4873 54.5625C74.7008 53.2604 77.3245 52.6094 80.3584 52.6094C83.3923 52.6094 86.0094 53.2604 88.21 54.5625C90.4235 55.8516 92.1292 57.6615 93.3271 59.9922C94.5251 62.3099 95.124 65.0182 95.124 68.1172C95.124 71.1901 94.5251 73.8919 93.3271 76.2227C92.1292 78.5404 90.4235 80.3503 88.21 81.6523C86.0094 82.9414 83.3923 83.5859 80.3584 83.5859ZM80.3975 77.1406C81.7777 77.1406 82.93 76.75 83.8545 75.9688C84.779 75.1745 85.4756 74.0937 85.9443 72.7266C86.4261 71.3594 86.667 69.8034 86.667 68.0586C86.667 66.3138 86.4261 64.7578 85.9443 63.3906C85.4756 62.0234 84.779 60.9427 83.8545 60.1484C82.93 59.3542 81.7777 58.957 80.3975 58.957C79.0042 58.957 77.8324 59.3542 76.8818 60.1484C75.9443 60.9427 75.2347 62.0234 74.7529 63.3906C74.2842 64.7578 74.0498 66.3138 74.0498 68.0586C74.0498 69.8034 74.2842 71.3594 74.7529 72.7266C75.2347 74.0937 75.9443 75.1745 76.8818 75.9688C77.8324 76.75 79.0042 77.1406 80.3975 77.1406ZM105.7 83L97.5361 53H105.954L110.603 73.1562H110.876L115.72 53H123.981L128.903 73.0391H129.157L133.728 53H142.126L133.981 83H125.173L120.017 64.1328H119.646L114.489 83H105.7ZM154.885 43V83H146.564V43H154.885ZM175.222 83.5859C172.136 83.5859 169.479 82.9609 167.253 81.7109C165.039 80.4479 163.334 78.6641 162.136 76.3594C160.938 74.0417 160.339 71.3008 160.339 68.1367C160.339 65.0508 160.938 62.3424 162.136 60.0117C163.334 57.681 165.02 55.8646 167.194 54.5625C169.382 53.2604 171.947 52.6094 174.89 52.6094C176.869 52.6094 178.711 52.9284 180.417 53.5664C182.136 54.1914 183.633 55.1354 184.909 56.3984C186.198 57.6615 187.201 59.25 187.917 61.1641C188.633 63.0651 188.991 65.2917 188.991 67.8437V70.1289H163.659V64.9727H181.159C181.159 63.7747 180.899 62.7135 180.378 61.7891C179.857 60.8646 179.134 60.1419 178.21 59.6211C177.299 59.0872 176.237 58.8203 175.026 58.8203C173.763 58.8203 172.644 59.1133 171.667 59.6992C170.703 60.2721 169.948 61.0469 169.401 62.0234C168.854 62.987 168.575 64.0612 168.562 65.2461V70.1484C168.562 71.6328 168.835 72.9154 169.382 73.9961C169.942 75.0768 170.729 75.9102 171.745 76.4961C172.761 77.082 173.965 77.375 175.358 77.375C176.283 77.375 177.129 77.2448 177.897 76.9844C178.666 76.724 179.323 76.3333 179.87 75.8125C180.417 75.2917 180.834 74.6536 181.12 73.8984L188.815 74.4062C188.425 76.2552 187.624 77.8698 186.413 79.25C185.215 80.6172 183.666 81.6849 181.765 82.4531C179.877 83.2083 177.696 83.5859 175.222 83.5859ZM205.476 83.4883C203.197 83.4883 201.133 82.9023 199.284 81.7305C197.448 80.5456 195.99 78.8073 194.909 76.5156C193.841 74.2109 193.308 71.3854 193.308 68.0391C193.308 64.6016 193.861 61.7435 194.968 59.4648C196.075 57.1732 197.546 55.4609 199.382 54.3281C201.231 53.1823 203.256 52.6094 205.456 52.6094C207.136 52.6094 208.535 52.8958 209.655 53.4688C210.788 54.0286 211.7 54.7318 212.39 55.5781C213.093 56.4115 213.627 57.2318 213.991 58.0391H214.245V43H222.546V83H214.343V78.1953H213.991C213.601 79.0286 213.047 79.8555 212.331 80.6758C211.628 81.4831 210.71 82.1536 209.577 82.6875C208.457 83.2214 207.09 83.4883 205.476 83.4883ZM208.112 76.8672C209.453 76.8672 210.586 76.5026 211.511 75.7734C212.448 75.0312 213.164 73.9961 213.659 72.668C214.167 71.3398 214.421 69.7839 214.421 68C214.421 66.2161 214.174 64.6667 213.679 63.3516C213.184 62.0365 212.468 61.0208 211.53 60.3047C210.593 59.5885 209.453 59.2305 208.112 59.2305C206.745 59.2305 205.593 59.6016 204.655 60.3437C203.718 61.0859 203.008 62.1146 202.526 63.4297C202.045 64.7448 201.804 66.2682 201.804 68C201.804 69.7448 202.045 71.2878 202.526 72.6289C203.021 73.957 203.731 74.9987 204.655 75.7539C205.593 76.4961 206.745 76.8672 208.112 76.8672ZM242.902 94.875C240.207 94.875 237.896 94.5039 235.969 93.7617C234.055 93.0326 232.531 92.0365 231.398 90.7734C230.266 89.5104 229.53 88.0911 229.191 86.5156L236.887 85.4805C237.121 86.0794 237.492 86.6393 238 87.1602C238.508 87.681 239.178 88.0977 240.012 88.4102C240.858 88.7357 241.887 88.8984 243.098 88.8984C244.908 88.8984 246.398 88.4557 247.57 87.5703C248.755 86.6979 249.348 85.2331 249.348 83.1758V77.6875H248.996C248.632 78.5208 248.085 79.3086 247.355 80.0508C246.626 80.793 245.689 81.3984 244.543 81.8672C243.397 82.3359 242.03 82.5703 240.441 82.5703C238.189 82.5703 236.138 82.0495 234.289 81.0078C232.453 79.9531 230.988 78.3451 229.895 76.1836C228.814 74.0091 228.273 71.2617 228.273 67.9414C228.273 64.543 228.827 61.7044 229.934 59.4258C231.04 57.1471 232.512 55.4414 234.348 54.3086C236.197 53.1758 238.221 52.6094 240.422 52.6094C242.102 52.6094 243.508 52.8958 244.641 53.4688C245.773 54.0286 246.685 54.7318 247.375 55.5781C248.078 56.4115 248.618 57.2318 248.996 58.0391H249.309V53H257.57V83.293C257.57 85.8451 256.945 87.9805 255.695 89.6992C254.445 91.418 252.714 92.707 250.5 93.5664C248.299 94.4388 245.767 94.875 242.902 94.875ZM243.078 76.3203C244.419 76.3203 245.552 75.9883 246.477 75.3242C247.414 74.6471 248.13 73.6836 248.625 72.4336C249.133 71.1706 249.387 69.6602 249.387 67.9023C249.387 66.1445 249.139 64.6211 248.645 63.332C248.15 62.0299 247.434 61.0208 246.496 60.3047C245.559 59.5885 244.419 59.2305 243.078 59.2305C241.711 59.2305 240.559 59.6016 239.621 60.3437C238.684 61.0729 237.974 62.0885 237.492 63.3906C237.01 64.6927 236.77 66.1966 236.77 67.9023C236.77 69.6341 237.01 71.1315 237.492 72.3945C237.987 73.6445 238.697 74.6146 239.621 75.3047C240.559 75.9818 241.711 76.3203 243.078 76.3203ZM277.863 83.5859C274.777 83.5859 272.121 82.9609 269.895 81.7109C267.681 80.4479 265.975 78.6641 264.777 76.3594C263.579 74.0417 262.98 71.3008 262.98 68.1367C262.98 65.0508 263.579 62.3424 264.777 60.0117C265.975 57.681 267.661 55.8646 269.836 54.5625C272.023 53.2604 274.589 52.6094 277.531 52.6094C279.51 52.6094 281.353 52.9284 283.059 53.5664C284.777 54.1914 286.275 55.1354 287.551 56.3984C288.84 57.6615 289.842 59.25 290.559 61.1641C291.275 63.0651 291.633 65.2917 291.633 67.8437V70.1289H266.301V64.9727H283.801C283.801 63.7747 283.54 62.7135 283.02 61.7891C282.499 60.8646 281.776 60.1419 280.852 59.6211C279.94 59.0872 278.879 58.8203 277.668 58.8203C276.405 58.8203 275.285 59.1133 274.309 59.6992C273.345 60.2721 272.59 61.0469 272.043 62.0234C271.496 62.987 271.216 64.0612 271.203 65.2461V70.1484C271.203 71.6328 271.477 72.9154 272.023 73.9961C272.583 75.0768 273.371 75.9102 274.387 76.4961C275.402 77.082 276.607 77.375 278 77.375C278.924 77.375 279.771 77.2448 280.539 76.9844C281.307 76.724 281.965 76.3333 282.512 75.8125C283.059 75.2917 283.475 74.6536 283.762 73.8984L291.457 74.4062C291.066 76.2552 290.266 77.8698 289.055 79.25C287.857 80.6172 286.307 81.6849 284.406 82.4531C282.518 83.2083 280.337 83.5859 277.863 83.5859Z" fill="black"/>
</g>
<defs>
<clipPath id="clip0_263_33">
<rect width="292" height="95" fill="white"/>
</clipPath>
</defs>
</svg>
