<svg width="224" height="95" viewBox="0 0 224 95" fill="none" xmlns="http://www.w3.org/2000/svg">
<g clip-path="url(#clip0_263_61)">
<path d="M78.5879 94V64H86.5176V69.293H86.8691C87.4941 67.5352 88.5358 66.1484 89.9941 65.1328C91.4525 64.1172 93.1973 63.6094 95.2285 63.6094C97.2858 63.6094 99.0371 64.1237 100.482 65.1523C101.928 66.168 102.891 67.5482 103.373 69.293H103.686C104.298 67.5742 105.404 66.2005 107.006 65.1719C108.62 64.1302 110.528 63.6094 112.729 63.6094C115.528 63.6094 117.8 64.5013 119.545 66.2852C121.303 68.056 122.182 70.569 122.182 73.8242V94H113.881V75.4648C113.881 73.7982 113.438 72.5482 112.553 71.7148C111.667 70.8815 110.561 70.4648 109.232 70.4648C107.722 70.4648 106.544 70.9466 105.697 71.9102C104.851 72.8607 104.428 74.1172 104.428 75.6797V94H96.3613V75.2891C96.3613 73.8177 95.9382 72.6458 95.0918 71.7734C94.2585 70.901 93.1582 70.4648 91.791 70.4648C90.8665 70.4648 90.0332 70.6992 89.291 71.168C88.5618 71.6237 87.9824 72.2682 87.5527 73.1016C87.123 73.9219 86.9082 74.8854 86.9082 75.9922V94H78.5879ZM142.426 94.5859C139.34 94.5859 136.684 93.9609 134.457 92.7109C132.243 91.4479 130.538 89.6641 129.34 87.3594C128.142 85.0417 127.543 82.3008 127.543 79.1367C127.543 76.0508 128.142 73.3424 129.34 71.0117C130.538 68.681 132.224 66.8646 134.398 65.5625C136.586 64.2604 139.151 63.6094 142.094 63.6094C144.073 63.6094 145.915 63.9284 147.621 64.5664C149.34 65.1914 150.837 66.1354 152.113 67.3984C153.402 68.6615 154.405 70.25 155.121 72.1641C155.837 74.0651 156.195 76.2917 156.195 78.8437V81.1289H130.863V75.9727H148.363C148.363 74.7747 148.103 73.7135 147.582 72.7891C147.061 71.8646 146.339 71.1419 145.414 70.6211C144.503 70.0872 143.441 69.8203 142.23 69.8203C140.967 69.8203 139.848 70.1133 138.871 70.6992C137.908 71.2721 137.152 72.0469 136.605 73.0234C136.059 73.987 135.779 75.0612 135.766 76.2461V81.1484C135.766 82.6328 136.039 83.9154 136.586 84.9961C137.146 86.0768 137.934 86.9102 138.949 87.4961C139.965 88.082 141.169 88.375 142.562 88.375C143.487 88.375 144.333 88.2448 145.102 87.9844C145.87 87.724 146.527 87.3333 147.074 86.8125C147.621 86.2917 148.038 85.6536 148.324 84.8984L156.02 85.4062C155.629 87.2552 154.828 88.8698 153.617 90.25C152.419 91.6172 150.87 92.6849 148.969 93.4531C147.081 94.2083 144.9 94.5859 142.426 94.5859ZM169.945 76.6563V94H161.625V64H169.555V69.293H169.906C170.57 67.5482 171.684 66.168 173.246 65.1523C174.809 64.1237 176.703 63.6094 178.93 63.6094C181.013 63.6094 182.829 64.0651 184.379 64.9766C185.928 65.888 187.133 67.1901 187.992 68.8828C188.852 70.5625 189.281 72.5677 189.281 74.8984V94H180.961V76.3828C180.974 74.5469 180.505 73.1146 179.555 72.0859C178.604 71.0443 177.296 70.5234 175.629 70.5234C174.509 70.5234 173.52 70.7643 172.66 71.2461C171.814 71.7279 171.15 72.431 170.668 73.3555C170.199 74.2669 169.958 75.3672 169.945 76.6563ZM215.077 81.2266V64H223.397V94H215.409V88.5508H215.097C214.42 90.3086 213.293 91.7214 211.718 92.7891C210.155 93.8568 208.248 94.3906 205.995 94.3906C203.99 94.3906 202.226 93.9349 200.702 93.0234C199.179 92.112 197.987 90.8164 197.128 89.1367C196.282 87.457 195.852 85.4453 195.839 83.1016V64H204.159V81.6172C204.172 83.388 204.647 84.7878 205.585 85.8164C206.522 86.8451 207.779 87.3594 209.354 87.3594C210.357 87.3594 211.295 87.1315 212.167 86.6758C213.039 86.207 213.743 85.5169 214.276 84.6055C214.823 83.694 215.09 82.5677 215.077 81.2266Z" fill="black"/>
<path d="M13 0V74" stroke="black" stroke-width="6"/>
<path d="M10 74H15.5L21 89H5L10 74Z" stroke="black" stroke-width="6"/>
</g>
<defs>
<clipPath id="clip0_263_61">
<rect width="224" height="95" fill="white"/>
</clipPath>
</defs>
</svg>
