<svg width="134" height="80" viewBox="0 0 134 80" fill="none" xmlns="http://www.w3.org/2000/svg">
<g clip-path="url(#clip0_263_49)">
<path d="M40.0039 25V0.999999H41.8633V4.625H42.0508C42.5091 3.41667 43.3008 2.45833 44.4258 1.75C45.5508 1.04167 46.9049 0.6875 48.4883 0.6875C50.2279 0.6875 51.6289 1.10417 52.6914 1.9375C53.7643 2.77083 54.5352 3.90104 55.0039 5.32812H55.1758C55.6445 3.92187 56.4831 2.79687 57.6914 1.95312C58.9102 1.10938 60.4102 0.6875 62.1914 0.6875C64.5143 0.6875 66.2852 1.42187 67.5039 2.89062C68.7331 4.34896 69.3477 6.34896 69.3477 8.89063V25H67.4414V8.89063C67.4414 6.89062 66.9622 5.31771 66.0039 4.17187C65.0456 3.02604 63.6393 2.45312 61.7852 2.45312C59.806 2.45312 58.2852 3.07292 57.2227 4.3125C56.1602 5.55208 55.6289 7.13021 55.6289 9.04687V25H53.7227V8.76562C53.7227 6.90104 53.2539 5.38542 52.3164 4.21875C51.3789 3.04167 49.9727 2.45312 48.0977 2.45312C46.8268 2.45312 45.7279 2.74479 44.8008 3.32812C43.8841 3.91146 43.1706 4.71354 42.6602 5.73437C42.1602 6.75521 41.9102 7.92708 41.9102 9.25V25H40.0039ZM77.9297 34C77.4505 34 76.9766 33.9479 76.5078 33.8438C76.0391 33.7396 75.6172 33.6042 75.2422 33.4375L75.8047 31.7656C76.7839 32.1406 77.6693 32.276 78.4609 32.1719C79.263 32.0677 79.9714 31.7031 80.5859 31.0781C81.2005 30.4531 81.7214 29.5365 82.1484 28.3281L83.2422 25.3281L74.4453 0.999999H76.4922L84.1172 22.5469H84.2734L91.8984 0.999999H93.9453L83.8203 29.0781C83.4349 30.1615 82.9505 31.0677 82.3672 31.7969C81.7839 32.526 81.1172 33.0729 80.3672 33.4375C79.6276 33.8125 78.8151 34 77.9297 34Z" fill="black"/>
<path d="M8.59961 79L0.435547 49H8.85352L13.502 69.1562H13.7754L18.6191 49H26.8809L31.8027 69.0391H32.0566L36.627 49H45.0254L36.8809 79H28.0723L22.916 60.1328H22.5449L17.3887 79H8.59961ZM62.2666 79.5859C59.2327 79.5859 56.6091 78.9414 54.3955 77.6523C52.195 76.3503 50.4958 74.5404 49.2979 72.2227C48.0999 69.8919 47.501 67.1901 47.501 64.1172C47.501 61.0182 48.0999 58.3099 49.2979 55.9922C50.4958 53.6615 52.195 51.8516 54.3955 50.5625C56.6091 49.2604 59.2327 48.6094 62.2666 48.6094C65.3005 48.6094 67.9176 49.2604 70.1182 50.5625C72.3317 51.8516 74.0374 53.6615 75.2354 55.9922C76.4333 58.3099 77.0322 61.0182 77.0322 64.1172C77.0322 67.1901 76.4333 69.8919 75.2354 72.2227C74.0374 74.5404 72.3317 76.3503 70.1182 77.6523C67.9176 78.9414 65.3005 79.5859 62.2666 79.5859ZM62.3057 73.1406C63.6859 73.1406 64.8382 72.75 65.7627 71.9688C66.6872 71.1745 67.3838 70.0937 67.8525 68.7266C68.3343 67.3594 68.5752 65.8034 68.5752 64.0586C68.5752 62.3138 68.3343 60.7578 67.8525 59.3906C67.3838 58.0234 66.6872 56.9427 65.7627 56.1484C64.8382 55.3542 63.6859 54.957 62.3057 54.957C60.9124 54.957 59.7406 55.3542 58.79 56.1484C57.8525 56.9427 57.1429 58.0234 56.6611 59.3906C56.1924 60.7578 55.958 62.3138 55.958 64.0586C55.958 65.8034 56.1924 67.3594 56.6611 68.7266C57.1429 70.0937 57.8525 71.1745 58.79 71.9688C59.7406 72.75 60.9124 73.1406 62.3057 73.1406ZM82.4424 79V49H90.5088V54.2344H90.8213C91.3682 52.3724 92.2861 50.9661 93.5752 50.0156C94.8643 49.0521 96.3486 48.5703 98.0283 48.5703C98.445 48.5703 98.8942 48.5964 99.376 48.6484C99.8577 48.7005 100.281 48.7721 100.646 48.8633V56.2461C100.255 56.1289 99.7145 56.0247 99.0244 55.9336C98.3343 55.8424 97.7028 55.7969 97.1299 55.7969C95.9059 55.7969 94.8122 56.0638 93.8486 56.5977C92.8981 57.1185 92.1429 57.8477 91.583 58.7852C91.0361 59.7227 90.7627 60.8034 90.7627 62.0273V79H82.4424ZM112.486 70.3672L112.506 60.3867H113.717L123.326 49H132.877L119.967 64.0781H117.994L112.486 70.3672ZM104.947 79V39H113.268V79H104.947ZM123.697 79L114.869 65.9336L120.416 60.0547L133.443 79H123.697Z" fill="black"/>
</g>
<defs>
<clipPath id="clip0_263_49">
<rect width="134" height="80" fill="white"/>
</clipPath>
</defs>
</svg>
