<?xml version="1.0" encoding="UTF-8"?><svg id="Layer_1" xmlns="http://www.w3.org/2000/svg" width="65.65mm" height="80.45mm" viewBox="0 0 186.08 228.05"><path d="M20.66,225.01l-11.52-48.53h11.74l3.67,20.02c1.08,5.76,2.09,12.03,2.88,16.92h.14c.79-5.26,1.94-11.09,3.17-17.07l4.1-19.87h11.67l3.89,20.45c1.08,5.69,1.87,10.87,2.59,16.27h.14c.72-5.4,1.8-11.09,2.81-16.85l3.96-19.87h11.16l-12.53,48.53h-11.88l-4.1-20.88c-.94-4.9-1.73-9.43-2.3-14.98h-.14c-.86,5.47-1.66,10.08-2.81,14.98l-4.61,20.88h-12.02Z"/><path d="M108.14,207c0,12.89-9.14,18.79-18.58,18.79-10.3,0-18.22-6.77-18.22-18.15s7.49-18.65,18.79-18.65,18,7.42,18,18ZM82.65,207.36c0,6.05,2.52,10.58,7.2,10.58,4.25,0,6.98-4.25,6.98-10.58,0-5.26-2.02-10.58-6.98-10.58-5.26,0-7.2,5.4-7.2,10.58Z"/><path d="M114.91,201.39c0-5.18-.14-8.57-.29-11.59h9.43l.36,6.48h.29c1.8-5.11,6.12-7.27,9.5-7.27,1.01,0,1.51,0,2.3.14v10.3c-.79-.14-1.73-.29-2.95-.29-4.03,0-6.77,2.16-7.49,5.54-.14.72-.22,1.58-.22,2.45v17.86h-10.94v-23.62Z"/><path d="M152.99,204.63h.14c.79-1.44,1.66-2.88,2.52-4.25l7.13-10.58h13.18l-12.6,14.26,14.4,20.95h-13.46l-8.5-14.47-2.81,3.46v11.02h-10.94v-51.12h10.94v30.75Z"/><path d="M81.02,108.32c-1.22.04-2.44.05-3.67-.08-16.47-1.74-41.06-5.9-57.19-9.67-5.58-1.3-8.84-2.6-9.44-8.98-1.48-15.77,1.16-33.8.02-49.82.93-7.25,5.35-8.76,11.91-9.23,12.65-.91,25.66.77,38.2.74,22.02-.04,44.2-.82,66.18-.74,12.3.05,30.02-1.33,41.61.74,4.57.82,6.25,5.87,6.54,9.83,1.16,15.63-.92,32.67-.03,48.45-.26,2.68-1.63,5.51-3.98,6.94l-65.94,11.83c-.81-5.22.83-10.72-3.82-14.62-3.57-3-14.67-2.65-18.06.93-.44.47-2.35,3.55-2.35,3.79v9.89Z"/><path d="M14.84,103.55l65.85,11.58c.84,13.15,24.24,12.78,24.34-.52l66.04-11.06v39.9c0,2.16-5.91,7.42-8.51,7.18l-140.92-.34c-2.08-.3-6.8-5.14-6.8-6.84v-39.9Z"/><path d="M123.32,27.84h-7.51c.84-7.08-2.47-12.81-9.89-13.65-5.41-.61-21.97-.7-27.13.17-6.49,1.09-8.98,7.52-8.69,13.48h-7.51c-.62-8.12,3.23-16.81,11.12-19.92,4.96-1.95,27.43-1.83,33.56-1.22,10.8,1.08,16.62,10.95,16.04,21.14Z"/><path d="M100.12,109.69c-.18,4.65,1.54,9.01-4.39,9.59-8.74.86-10.87-.47-9.93-9.59h14.33Z"/><path d="M100.12,106.28h-14.33l.34-7.51c.97-1.99,11.59-1.88,13.03-.74,1.8,1.42.66,6.05.96,8.25Z"/></svg>